<mxfile host="app.diagrams.net" modified="2023-05-23T12:57:18.211Z" agent="Mozilla/5.0 (Windows NT 10.0; Win64; x64) AppleWebKit/537.36 (KHTML, like Gecko) Chrome/113.0.0.0 Safari/537.36 Edg/113.0.1774.50" version="21.3.3" etag="vP5Rb0aLV1iEfuQ9MSl2" type="github">
  <diagram name="페이지-1" id="S9eCcpIKx9PP3oiz-U9N">
    <mxGraphModel>
      <root>
        <mxCell id="0" />
        <mxCell id="1" parent="0" />
      </root>
    </mxGraphModel>
  </diagram>
</mxfile>
